<?xml version="1.0" encoding="utf-8"?>
<!-- Generator: Adobe Illustrator 16.0.0, SVG Export Plug-In . SVG Version: 6.00 Build 0)  -->
<!DOCTYPE svg PUBLIC "-//W3C//DTD SVG 1.1//EN" "http://www.w3.org/Graphics/SVG/1.1/DTD/svg11.dtd">
<svg version="1.1" id="Capa_1" xmlns="http://www.w3.org/2000/svg" xmlns:xlink="http://www.w3.org/1999/xlink" x="0px" y="0px"
	 width="80px" height="80px" viewBox="234 233.999 80 80" enable-background="new 234 233.999 80 80" xml:space="preserve">
<g>
	<path d="M293.787,261.148l-26.155-1.127c-0.748-0.036-1.378,0.547-1.41,1.293c-0.032,0.747,0.547,1.378,1.293,1.41l24.385,1.052
		l-4.795,14.959H265.77l-3.854-20.988c-0.085-0.46-0.401-0.844-0.836-1.015l-6.313-2.48c-0.696-0.272-1.48,0.069-1.754,0.765
		c-0.273,0.696,0.069,1.481,0.765,1.754l5.613,2.205l3.923,21.357c0.118,0.642,0.677,1.108,1.33,1.108h0.651l-1.486,4.127
		c-0.125,0.346-0.073,0.73,0.138,1.031c0.211,0.3,0.555,0.479,0.922,0.479h1.042c-0.646,0.719-1.042,1.665-1.042,2.705
		c0,2.238,1.821,4.059,4.058,4.059c2.238,0,4.059-1.821,4.059-4.059c0-1.04-0.397-1.986-1.042-2.705h8.849
		c-0.646,0.719-1.043,1.665-1.043,2.705c0,2.238,1.821,4.059,4.059,4.059s4.059-1.821,4.059-4.059c0-1.04-0.397-1.986-1.042-2.705
		h1.269c0.623,0,1.127-0.505,1.127-1.128s-0.505-1.127-1.127-1.127h-21.62l1.218-3.383h20.402c0.589,0,1.109-0.379,1.288-0.939
		l5.638-17.587c0.129-0.402,0.063-0.84-0.179-1.187C294.599,261.38,294.209,261.166,293.787,261.148z M283.809,287.98
		c0.995,0,1.804,0.809,1.804,1.804c0,0.994-0.81,1.804-1.804,1.804s-1.804-0.81-1.804-1.804
		C282.005,288.788,282.813,287.98,283.809,287.98z M268.927,287.98c0.995,0,1.804,0.809,1.804,1.804c0,0.994-0.81,1.804-1.804,1.804
		c-0.994,0-1.804-0.81-1.804-1.804C267.124,288.788,267.933,287.98,268.927,287.98z M290.235,243.254l1.971-3.413
		c0.362-0.629,1.167-0.844,1.793-0.48c0.629,0.363,0.844,1.166,0.481,1.794l-1.97,3.413c-0.244,0.421-0.686,0.657-1.14,0.657
		c-0.223,0-0.449-0.057-0.655-0.176C290.088,244.685,289.872,243.882,290.235,243.254z M302.952,257.284
		c-0.363-0.627-0.147-1.432,0.48-1.794l3.414-1.97c0.626-0.363,1.432-0.148,1.794,0.48c0.362,0.628,0.147,1.432-0.481,1.794
		l-3.413,1.97c-0.207,0.12-0.432,0.177-0.655,0.177C303.637,257.942,303.195,257.706,302.952,257.284z M314,274
		c0,0.726-0.589,1.314-1.314,1.314h-3.94c-0.725,0-1.313-0.588-1.313-1.314c0-0.725,0.589-1.313,1.313-1.313h3.94
		C313.411,272.686,314,273.275,314,274z M308.641,294c-0.244,0.42-0.686,0.656-1.14,0.656c-0.223,0-0.448-0.058-0.654-0.176
		l-3.414-1.97c-0.628-0.364-0.844-1.167-0.48-1.796c0.361-0.628,1.168-0.843,1.794-0.48l3.413,1.971
		C308.787,292.568,309.003,293.371,308.641,294z M294.48,306.846c0.362,0.628,0.147,1.432-0.481,1.794
		c-0.206,0.12-0.433,0.177-0.655,0.177c-0.452,0-0.896-0.235-1.139-0.657l-1.97-3.413c-0.363-0.628-0.148-1.432,0.479-1.794
		s1.433-0.149,1.795,0.479L294.48,306.846z M275.313,308.744l0.001,3.94c0,0.726-0.588,1.314-1.314,1.314
		c-0.725,0-1.313-0.588-1.313-1.313l-0.001-3.94c0-0.726,0.587-1.314,1.314-1.314C274.725,307.431,275.313,308.019,275.313,308.744z
		 M257.764,304.745l-1.969,3.414c-0.243,0.422-0.685,0.657-1.14,0.657c-0.223,0-0.449-0.057-0.655-0.177
		c-0.628-0.362-0.844-1.165-0.481-1.794l1.97-3.414c0.363-0.629,1.168-0.842,1.795-0.481
		C257.911,303.314,258.128,304.117,257.764,304.745z M245.048,290.714c0.363,0.628,0.148,1.433-0.48,1.795l-3.414,1.972
		c-0.207,0.118-0.433,0.176-0.655,0.176c-0.454,0-0.895-0.236-1.139-0.656c-0.363-0.629-0.148-1.433,0.48-1.795l3.413-1.971
		C243.882,289.871,244.685,290.086,245.048,290.714z M239.256,275.314h-3.941c-0.726,0-1.314-0.588-1.314-1.314
		c0-0.725,0.588-1.313,1.314-1.313l3.941,0c0.726,0,1.313,0.588,1.313,1.313S239.981,275.314,239.256,275.314z M245.049,257.284
		c-0.244,0.421-0.685,0.656-1.14,0.656c-0.223,0-0.449-0.057-0.655-0.175l-3.414-1.971c-0.628-0.364-0.844-1.167-0.481-1.795
		c0.364-0.627,1.167-0.844,1.795-0.48l3.414,1.97C245.196,255.851,245.411,256.656,245.049,257.284z M253.52,241.154
		c-0.364-0.628-0.148-1.433,0.48-1.794c0.628-0.363,1.433-0.148,1.794,0.48l1.972,3.414c0.363,0.628,0.148,1.432-0.48,1.794
		c-0.208,0.12-0.433,0.177-0.656,0.177c-0.453,0-0.895-0.236-1.138-0.657L253.52,241.154z M272.686,239.255v-3.941
		c0-0.726,0.589-1.314,1.314-1.314c0.726,0,1.314,0.588,1.314,1.314v3.941c0,0.726-0.589,1.314-1.314,1.314
		C273.275,240.569,272.686,239.981,272.686,239.255z"/>
</g>
</svg>
